Coordinates
version=1
nRows=26
nColumns=30
inDegrees=yes

Units are S.I. units (second, meters, Newtons, ...)
Angles are in degrees.

endheader
time	floatyaw	floatroll	floatpitch	floatx	floaty	floatz	pro_sup_l	deviation_l	flexion_l	cmc_flexion_l	cmc_abduction_l	mp_flexion_l	ip_flexion_l	2mcp_flexion_l	2mcp_abduction_l	2pm_flexion_l	2md_flexion_l	3mcp_flexion_l	3mcp_abduction_l	3pm_flexion_l	3md_flexion_l	4mcp_flexion_l	4mcp_abduction_l	4pm_flexion_l	4md_flexion_l	5mcp_flexion_l	5mcp_abduction_l	5pm_flexion_l	5md_flexion_l
-0.495000	-0.845308	-4.283240	94.249796	0.001354	-0.259018	0.010802	86.761599	-0.338372	-0.385937	18.618300	9.310162	-16.466907	-25.686290	25.447071	5.765860	28.551664	19.558813	13.124566	4.752951	33.678401	22.165707	2.203746	-3.508126	51.764363	33.123294	-10.510875	-9.694158	55.036365	43.283173
-0.485000	-0.845308	-4.283240	94.249796	0.003598	-0.257127	0.013574	86.046517	0.019861	-0.113938	17.026500	10.828079	-16.339400	-24.471290	26.995522	5.890033	27.498884	19.194955	14.368692	4.944728	33.160500	22.339269	3.089162	-3.602152	51.414130	33.319958	-8.089492	-9.543508	53.657427	42.366699
-0.475000	-0.845308	-4.283240	94.249796	0.006158	-0.255209	0.016800	85.274796	0.550658	0.083383	15.340947	12.362344	-16.277085	-23.376730	28.659274	5.985117	26.339492	18.786196	15.759732	5.143601	32.535452	22.494534	4.157624	-3.703502	50.941377	33.624501	-5.405220	-9.267972	52.221080	41.651715
-0.465000	-0.845308	-4.283240	94.249796	0.009045	-0.253250	0.020408	84.520024	1.268456	0.190398	13.591720	13.838307	-16.210902	-22.358992	30.338522	6.061295	25.176526	18.366630	17.265834	5.339602	31.823568	22.609992	5.410049	-3.800560	50.439694	34.037601	-2.617496	-8.893159	50.879300	41.206786
-0.455000	-0.845308	-4.283240	94.249796	0.012277	-0.251209	0.024311	83.866251	2.163452	0.208603	11.812397	15.213617	-16.073456	-21.348313	31.963506	6.145472	24.100948	17.957507	18.878631	5.527523	31.039687	22.675019	6.821983	-3.880806	50.024746	34.565421	0.126344	-8.473649	49.780851	41.065646
-0.445000	-0.845308	-4.283240	94.249796	0.015872	-0.249042	0.028447	83.397398	3.207328	0.152888	10.042719	16.480616	-15.828292	-20.291521	33.520725	6.270889	23.163535	17.558405	20.619328	5.708581	30.181851	22.694881	8.343550	-3.936395	49.781500	35.234208	2.698390	-8.075878	49.059242	41.257212
-0.435000	-0.845308	-4.283240	94.249796	0.019835	-0.246737	0.032814	83.182219	4.361978	0.046226	8.331957	17.656483	-15.484713	-19.187427	35.043449	6.464010	22.374747	17.154459	22.521165	5.888778	29.239212	22.692641	9.905852	-3.970050	49.728170	36.089492	4.982065	-7.757526	48.826700	41.821611
-0.425000	-0.845308	-4.283240	94.249796	0.024146	-0.244337	0.037449	83.256045	5.585495	-0.083345	6.734733	18.768924	-15.090528	-18.091257	36.573973	6.734415	21.724763	16.734718	24.595139	6.074912	28.213599	22.707402	11.432651	-3.995957	49.817017	37.175958	6.875846	-7.553092	49.157502	42.792667
-0.415000	-0.845308	-4.283240	94.249796	0.028768	-0.241933	0.042391	83.608153	6.835092	-0.203532	5.297446	19.844623	-14.707352	-17.085568	38.123623	7.071208	21.204558	16.308675	26.798869	6.270072	27.140319	22.786990	12.852135	-4.032624	49.973649	38.509104	8.319147	-7.471074	50.062779	44.158347
-0.405000	-0.845308	-4.283240	94.249796	0.033653	-0.239647	0.047638	84.184696	8.070502	-0.279438	4.042850	20.903913	-14.382819	-16.238534	39.655977	7.446419	20.814119	15.909258	29.029725	6.470727	26.094130	22.974028	14.103822	-4.090977	50.153923	40.056882	9.324548	-7.501721	51.475648	45.829867
-0.395000	-0.845308	-4.283240	94.249796	0.038768	-0.237595	0.053137	84.909205	9.259704	-0.278191	2.962450	21.960959	-14.133976	-15.575491	41.102052	7.823961	20.556540	15.579498	31.150739	6.667161	25.173173	23.288831	15.141608	-4.165732	50.382209	41.743784	9.989710	-7.629229	53.261539	47.644517
-0.385000	-0.845308	-4.283240	94.249796	0.044099	-0.235855	0.058807	85.711371	10.384166	-0.175288	2.020851	23.026237	-13.947404	-15.075421	42.395155	8.171455	20.426290	15.350936	33.038018	6.847372	24.465119	23.717878	15.939506	-4.237066	50.741802	43.475409	10.472984	-7.840458	55.251827	49.406057
-0.375000	-0.845308	-4.283240	94.249796	0.049650	-0.234461	0.064570	86.549107	11.439075	0.040941	1.169795	24.107972	-13.792001	-14.687187	43.501302	8.471049	20.402449	15.228098	34.623760	7.002621	24.012208	24.217052	16.503174	-4.283137	51.319826	45.168165	10.938889	-8.125074	57.286385	50.945184
-0.365000	-0.845308	-4.283240	94.249796	0.055419	-0.233408	0.070365	87.413402	12.427425	0.369665	0.366282	25.211477	-13.635749	-14.353249	44.426342	8.724798	20.452984	15.189680	35.910642	7.131750	23.795797	24.730957	16.879715	-4.296371	52.142939	46.766039	11.498856	-8.468649	59.248902	52.171615
-0.355000	-0.845308	-4.283240	94.249796	0.061374	-0.232670	0.076146	88.317159	13.351980	0.802951	-0.412256	26.338150	-13.458277	-14.030047	45.199298	8.951752	20.547326	15.205078	36.952035	7.241956	23.749998	25.218304	17.152421	-4.292720	53.147472	48.237792	12.176971	-8.846066	61.083347	53.093440
-0.345000	-0.845308	-4.283240	94.249796	0.067447	-0.232227	0.081866	89.279043	14.211089	1.333498	-1.162482	27.486295	-13.254531	-13.698096	45.847675	9.177616	20.668025	15.253984	37.814415	7.345304	23.794590	25.668353	17.414764	-4.306470	54.202142	49.564293	12.916918	-9.222638	62.786861	53.796049
-0.335000	-0.845308	-4.283240	94.249796	0.073560	-0.232065	0.087484	90.313445	15.001107	1.960290	-1.862306	28.653221	-13.029723	-13.359500	46.382210	9.421748	20.813625	15.335929	38.546333	7.452541	23.866120	26.099952	17.733690	-4.372236	55.165990	50.731792	13.623087	-9.564141	64.383292	54.392917
-0.325000	-0.845308	-4.283240	94.249796	0.079651	-0.232173	0.092981	91.428831	15.722497	2.688392	-2.486402	29.835389	-12.790472	-13.026543	46.797643	9.687885	20.992040	15.465470	39.168123	7.567500	23.931610	26.546566	18.122777	-4.504745	55.945430	51.737038	14.211284	-9.849652	65.890888	54.972941
-0.315000	-0.845308	-4.283240	94.249796	0.085688	-0.232535	0.098362	92.628250	16.383659	3.522599	-3.020488	31.024548	-12.538668	-12.709454	47.084301	9.963102	21.210183	15.658738	39.680141	7.685435	23.984011	27.037787	18.541909	-4.689210	56.521469	52.596076	14.643840	-10.078811	67.301179	55.567977
-0.305000	-0.845308	-4.283240	94.249796	0.091652	-0.233126	0.103638	93.906263	16.998985	4.458964	-3.466268	32.202321	-12.271510	-12.410395	47.240791	10.225094	21.466881	15.921160	40.078126	7.796226	24.029369	27.586571	18.923743	-4.888257	56.940725	53.345194	14.938133	-10.269243	68.579370	56.151719
-0.295000	-0.845308	-4.283240	94.249796	0.097519	-0.233923	0.108800	95.243956	17.582953	5.480341	-3.836401	33.339151	-11.985953	-12.124968	47.280443	10.453436	21.752825	16.243466	40.365093	7.890282	24.076547	28.186083	19.210691	-5.060606	57.284022	54.030552	15.153184	-10.446548	69.683585	56.665155
-0.285000	-0.845308	-4.283240	94.249796	0.103245	-0.234913	0.113801	96.608671	18.144980	6.559986	-4.145382	34.401613	-11.682864	-11.847479	47.229333	10.638705	22.056329	16.606859	40.554890	7.963445	24.134307	28.815085	19.381816	-5.180051	57.632098	54.691696	15.365267	-10.632978	70.590045	57.052757
-0.275000	-0.845308	-4.283240	94.249796	0.108783	-0.236097	0.118577	97.961881	18.688193	7.671481	-4.403040	35.365580	-11.367644	-11.575356	47.118456	10.785165	22.370029	16.992500	40.668499	8.018357	24.213339	29.447728	19.458403	-5.244733	58.041066	55.346928	15.641745	-10.839876	71.309280	57.291085
-0.265000	-0.845308	-4.283240	94.249796	0.114094	-0.237488	0.123077	99.271127	19.211708	8.797992	-4.613226	36.226963	-11.047633	-11.310466	46.975044	10.906663	22.693546	17.388586	40.727777	8.062183	24.327429	30.062569	19.490179	-5.273653	58.531128	55.987099	16.019907	-11.065506	71.884834	57.397451
-0.255000	-0.845308	-4.283240	94.249796	0.119163	-0.239091	0.127281	100.518105	19.713705	9.934102	-4.775864	37.002302	-10.729035	-11.057764	46.817392	11.018879	23.030630	17.791314	40.751392	8.102580	24.490103	30.647021	19.532309	-5.294390	59.087467	56.581009	16.496460	-11.297440	72.376473	57.418339
-0.245000	-0.845308	-4.283240	94.249796	0.123978	-0.240897	0.131199	101.698185	20.192807	11.079607	-4.889338	37.718327	-10.415833	-10.822977	46.654848	11.132330	23.383652	18.201129	40.754633	8.144310	24.708499	31.196613	19.624523	-5.329544	59.671170	57.090604	17.031022	-11.518047	72.838306	57.408085
